<svg xmlns="http://www.w3.org/2000/svg" width="50" height="50" viewBox="0 0 50 50">
    <path fill="#FFF" fill-rule="evenodd" d="M37.594 19.96c.014.27.019.541.019.815 0 8.327-6.338 17.926-17.926 17.926a17.84 17.84 0 0 1-9.658-2.83c.493.058.994.088 1.502.088a12.64 12.64 0 0 0 7.825-2.697 6.31 6.31 0 0 1-5.884-4.377c.383.076.778.113 1.184.113.575 0 1.131-.075 1.66-.22a6.305 6.305 0 0 1-5.054-6.258c.85.472 1.82.755 2.854.789a6.299 6.299 0 0 1-2.803-5.245c0-1.155.31-2.238.853-3.168a17.887 17.887 0 0 0 12.987 6.582 6.3 6.3 0 0 1 6.137-7.735c1.813 0 3.45.765 4.599 1.989a12.584 12.584 0 0 0 4-1.53 6.318 6.318 0 0 1-2.77 3.486 12.596 12.596 0 0 0 3.619-.992 12.729 12.729 0 0 1-3.144 3.264M25.001 0C11.193 0 0 11.195 0 25.001 0 38.809 11.193 50 25.001 50 38.809 50 50 38.809 50 25.001 50 11.195 38.808 0 25.001 0"/>
</svg>
