<svg xmlns="http://www.w3.org/2000/svg" xmlns:xlink="http://www.w3.org/1999/xlink" width="258" height="48" viewBox="0 0 258 48">
    <defs>
        <path id="a" d="M0 .585h25.471V37H.001z"/>
        <path id="c" d="M.9.585h25.472V37H.9z"/>
    </defs>
    <g fill="none" fill-rule="evenodd">
        <path fill="#FFF" d="M-60-26h1920V74H-60z"/>
        <g transform="translate(2 6.102)">
            <mask id="b" fill="#fff">
                <use xlink:href="#a"/>
            </mask>
            <path fill="#3F3A3A" d="M.736 25.418c.065.393.18.908.344 1.546.163.638.4 1.325.711 2.06.311.738.703 1.49 1.178 2.258a10.689 10.689 0 0 0 1.742 2.135c.753.753 1.481 1.325 2.184 1.718a9.445 9.445 0 0 0 2.012.86 7.48 7.48 0 0 0 1.816.294 53.97 53.97 0 0 0 1.596.024c1.733 0 3.157-.27 4.27-.81 1.111-.54 1.987-1.203 2.625-1.987.638-.785 1.087-1.611 1.35-2.478.261-.867.392-1.628.392-2.284 0-1.21-.286-2.207-.859-2.992-.572-.785-1.333-1.44-2.282-1.965-.949-.523-2.029-.963-3.239-1.323s-2.454-.729-3.73-1.105a35.683 35.683 0 0 1-3.73-1.325 12.375 12.375 0 0 1-3.239-1.963c-.95-.802-1.71-1.791-2.282-2.97-.573-1.178-.859-2.65-.859-4.417 0-1.309.294-2.569.883-3.779A10.334 10.334 0 0 1 4.073 3.7c1.047-.932 2.3-1.685 3.755-2.258C9.283.871 10.862.585 12.564.585c1.08 0 2.028.098 2.846.293.818.197 1.538.402 2.16.614a29.15 29.15 0 0 1 1.644.614c.474.196.908.294 1.3.294.458 0 .761-.074.91-.22.145-.149.301-.419.465-.81h.785v9.324h-.638a76.189 76.189 0 0 0-1.252-3.387 12.599 12.599 0 0 0-1.693-3.018 7.884 7.884 0 0 0-2.6-2.183c-1.048-.556-2.374-.834-3.976-.834-1.309 0-2.463.18-3.46.54-.999.36-1.84.834-2.528 1.423-.687.589-1.21 1.244-1.57 1.962a4.873 4.873 0 0 0-.54 2.208c0 1.147.302 2.096.908 2.847.605.753 1.398 1.4 2.38 1.938.982.54 2.102 1.008 3.362 1.4 1.26.393 2.552.803 3.877 1.226a57.65 57.65 0 0 1 3.877 1.4 13.317 13.317 0 0 1 3.362 1.938A9.321 9.321 0 0 1 24.564 21c.605 1.113.907 2.488.907 4.123 0 1.604-.327 3.125-.98 4.564a11.43 11.43 0 0 1-2.774 3.78c-1.195 1.08-2.618 1.939-4.27 2.575-1.652.64-3.493.959-5.52.959-1.016 0-2.022-.1-3.02-.295-.998-.197-1.93-.4-2.797-.614a55.704 55.704 0 0 1-2.307-.614c-.67-.196-1.17-.294-1.497-.294-.458 0-.785.074-.98.222-.197.147-.378.45-.54.907H0V25.417h.736z" mask="url(#b)"/>
        </g>
        <path fill="#3F3A3A" d="M47.594 8.158c-1.211 0-2.291.123-3.24.368-.948.246-1.8.67-2.551 1.277-.753.605-1.423 1.447-2.012 2.527-.59 1.079-1.13 2.454-1.62 4.122h-.638V7.47h30.772v8.98h-.638c-.491-1.667-1.031-3.042-1.62-4.121-.59-1.08-1.26-1.922-2.012-2.527a6.703 6.703 0 0 0-2.552-1.277c-.95-.245-2.03-.368-3.24-.368h-1.766v33.57h4.515v.687H44.845v-.687h4.516V8.158h-1.767zM90.193 7.47v.688h-3.877l10.012 17.128 9.03-17.128h-4.27V7.47h9.375v.687h-4.27L96.72 26.17v15.558h4.565v.687H85.089v-.687h4.515V28.035L78.218 8.158H74.39V7.47zM132.989 7.47v.688h-4.515v33.57h8.098c1.08 0 2.167-.18 3.264-.54 1.095-.36 2.126-.957 3.09-1.792.966-.834 1.834-1.913 2.603-3.238.768-1.326 1.365-2.937 1.79-4.835h.639v11.092h-31.115v-.687h4.515V8.158h-4.515V7.47h16.146zM172.987 15.894v.687h-4.516v25.147h4.516v.687H156.84v-.687h4.515V16.58h-4.515v-.687z"/>
        <g transform="translate(182 6.102)">
            <mask id="d" fill="#fff">
                <use xlink:href="#c"/>
            </mask>
            <path fill="#3F3A3A" d="M1.637 25.418c.065.393.179.908.344 1.546.163.638.4 1.325.71 2.06.312.738.704 1.49 1.179 2.258a10.689 10.689 0 0 0 1.742 2.135c.753.753 1.48 1.325 2.184 1.718a9.445 9.445 0 0 0 2.012.86 7.48 7.48 0 0 0 1.816.294 53.97 53.97 0 0 0 1.596.024c1.733 0 3.157-.27 4.269-.81s1.988-1.203 2.626-1.987c.638-.785 1.087-1.611 1.35-2.478.26-.867.392-1.628.392-2.284 0-1.21-.286-2.207-.86-2.992-.571-.785-1.332-1.44-2.281-1.965-.95-.523-2.03-.963-3.24-1.323-1.21-.36-2.453-.729-3.73-1.105a35.683 35.683 0 0 1-3.73-1.325 12.375 12.375 0 0 1-3.238-1.963c-.95-.802-1.71-1.791-2.282-2.97-.573-1.178-.86-2.65-.86-4.417 0-1.309.295-2.569.884-3.779A10.334 10.334 0 0 1 4.974 3.7c1.047-.932 2.299-1.685 3.755-2.258 1.455-.571 3.034-.857 4.736-.857 1.08 0 2.028.098 2.846.293.818.197 1.538.402 2.16.614a29.15 29.15 0 0 1 1.644.614c.474.196.908.294 1.3.294.458 0 .76-.074.909-.22.146-.149.302-.419.466-.81h.785v9.324h-.638a76.189 76.189 0 0 0-1.252-3.387 12.599 12.599 0 0 0-1.693-3.018 7.884 7.884 0 0 0-2.601-2.183c-1.047-.556-2.373-.834-3.975-.834-1.31 0-2.463.18-3.46.54-1 .36-1.84.834-2.528 1.423-.687.589-1.21 1.244-1.57 1.962a4.873 4.873 0 0 0-.54 2.208c0 1.147.302 2.096.908 2.847.605.753 1.398 1.4 2.38 1.938.982.54 2.102 1.008 3.362 1.4 1.259.393 2.552.803 3.877 1.226a57.65 57.65 0 0 1 3.877 1.4 13.317 13.317 0 0 1 3.362 1.938A9.321 9.321 0 0 1 25.464 21c.606 1.113.908 2.488.908 4.123 0 1.604-.327 3.125-.981 4.564a11.43 11.43 0 0 1-2.773 3.78c-1.195 1.08-2.618 1.939-4.27 2.575-1.652.64-3.493.959-5.521.959-1.015 0-2.021-.1-3.02-.295-.997-.197-1.93-.4-2.796-.614a55.704 55.704 0 0 1-2.307-.614c-.671-.196-1.17-.294-1.497-.294-.458 0-.785.074-.981.222-.196.147-.377.45-.54.907H.9V25.417h.736z" mask="url(#d)"/>
        </g>
        <path fill="#3F3A3A" d="M234.383 7.47v.688h-4.515v16.098h14.183V8.158h-4.515V7.47h16.147v.687h-4.515v33.57h4.515v.687h-16.147v-.687h4.515V24.943h-14.183v16.785h4.515v.687h-16.146v-.687h4.515V8.158h-4.515V7.47zM168.99 9.25a4.25 4.25 0 1 1-8.501 0 4.25 4.25 0 0 1 8.5 0"/>
    </g>
</svg>
