<svg xmlns="http://www.w3.org/2000/svg" width="44" height="44" viewBox="0 0 44 44">
    <g fill="none" fill-rule="evenodd">
        <g fill="#8B572A">
            <path d="M14.63 14.895c-.986 0-1.877.837-1.946 1.827L11.52 33.513c-.032.462.116.894.416 1.218.3.324.72.503 1.179.503h17.684c.46 0 .878-.179 1.178-.503.3-.324.448-.756.416-1.218L31.23 16.722c-.068-.99-.96-1.827-1.946-1.827H14.63zM30.8 36.759H13.115a3.08 3.08 0 0 1-2.287-.987 3.123 3.123 0 0 1-.82-2.365l1.164-16.791c.124-1.79 1.676-3.247 3.459-3.247h14.652c1.783 0 3.334 1.457 3.458 3.247l1.164 16.79a3.123 3.123 0 0 1-.82 2.366 3.08 3.08 0 0 1-2.286.987z"/>
            <path d="M27.629 17.45a.76.76 0 0 1-.758-.762v-6.642c0-.839-.678-1.52-1.511-1.52h-6.806c-.834 0-1.511.681-1.511 1.52v6.642a.76.76 0 0 1-.758.763.76.76 0 0 1-.758-.763v-6.642c0-1.68 1.358-3.046 3.027-3.046h6.806c1.669 0 3.027 1.366 3.027 3.046v6.642a.76.76 0 0 1-.758.763"/>
        </g>
        <g fill="#3F3A3A">
            <path d="M14.63 14.895c-.986 0-1.877.837-1.946 1.827L11.52 33.513c-.032.462.116.894.416 1.218.3.324.72.503 1.179.503h17.684c.46 0 .878-.179 1.178-.503.3-.324.448-.756.416-1.218L31.23 16.722c-.068-.99-.96-1.827-1.946-1.827H14.63zM30.8 36.759H13.115a3.08 3.08 0 0 1-2.287-.987 3.123 3.123 0 0 1-.82-2.365l1.164-16.791c.124-1.79 1.676-3.247 3.459-3.247h14.652c1.783 0 3.334 1.457 3.458 3.247l1.164 16.79a3.123 3.123 0 0 1-.82 2.366 3.08 3.08 0 0 1-2.286.987z"/>
            <path d="M27.629 17.45a.76.76 0 0 1-.758-.762v-6.642c0-.839-.678-1.52-1.511-1.52h-6.806c-.834 0-1.511.681-1.511 1.52v6.642a.76.76 0 0 1-.758.763.76.76 0 0 1-.758-.763v-6.642c0-1.68 1.358-3.046 3.027-3.046h6.806c1.669 0 3.027 1.366 3.027 3.046v6.642a.76.76 0 0 1-.758.763"/>
        </g>
        <text fill="#8B572A" font-family="NotoSansCJKtc-Medium, Noto Sans CJK TC" font-size="14" font-weight="400">
            <tspan x="14" y="31">20</tspan>
        </text>
    </g>
</svg>
