<svg xmlns="http://www.w3.org/2000/svg" width="44" height="44" viewBox="0 0 44 44">
    <g fill="#3F3A3A" fill-rule="evenodd">
        <path d="M22 8.565C14.592 8.565 8.565 14.592 8.565 22S14.592 35.435 22 35.435 35.435 29.408 35.435 22 29.408 8.565 22 8.565M22 37c-8.271 0-15-6.729-15-15S13.729 7 22 7s15 6.729 15 15-6.729 15-15 15"/>
        <path d="M22 12.537a3.901 3.901 0 0 0-3.897 3.897A3.901 3.901 0 0 0 22 20.331a3.901 3.901 0 0 0 3.897-3.897A3.901 3.901 0 0 0 22 12.537m0 9.36a5.468 5.468 0 0 1-5.462-5.463A5.468 5.468 0 0 1 22 10.972a5.468 5.468 0 0 1 5.462 5.462A5.468 5.468 0 0 1 22 21.896M26.68 36.171a.783.783 0 0 1-.783-.783v-6.902A3.901 3.901 0 0 0 22 24.59a3.901 3.901 0 0 0-3.897 3.897v6.902a.783.783 0 1 1-1.565 0v-6.902A5.468 5.468 0 0 1 22 23.024a5.468 5.468 0 0 1 5.462 5.462v6.902c0 .433-.35.783-.782.783"/>
    </g>
</svg>
