<svg xmlns="http://www.w3.org/2000/svg" width="50" height="50" viewBox="0 0 50 50">
    <g fill="#FFF" fill-rule="evenodd">
        <path d="M37.282 32.089c-2.927 3.243-6.494 5.697-10.18 7.992-.749.469-1.518.898-2.317 1.267-.3.14-.83.22-1.04.06-.21-.16-.22-.678-.2-1.028.03-.598.2-1.177.23-1.776.05-1.067-.22-1.367-1.298-1.596-.9-.19-1.828-.32-2.717-.589-4.366-1.307-7.942-3.662-9.74-8.012-.948-2.295-1.131-4.521-.585-6.632.51-1.985 1.668-3.868 3.442-5.61l.083-.08c.957-.928 2-1.695 3.116-2.315 1.686-.94 3.539-1.55 5.512-1.876 5.225-.868 10.06.11 14.305 3.383 2.118 1.636 3.627 3.751 4.356 6.335.091.342.149.69.193 1.042.076.571.112 1.153.186 1.722-.048 2.08-.673 3.91-1.702 5.557a15.166 15.166 0 0 1-1.644 2.156M24.974.06C11.181.06 0 11.229 0 25.005s11.181 24.944 24.974 24.944c13.793 0 24.975-11.168 24.975-24.944S38.767.06 24.974.06"/>
        <path d="M24.535 23.807c0 1.098-.01 2.186 0 3.283.01.569-.13 1.028-.8 1.028-.659 0-.828-.44-.828-1.018.01-1.846-.02-3.692.03-5.537.01-.34.25-.789.529-.968.42-.27.81.02 1.089.399a728.576 728.576 0 0 0 3.097 4.13c0-1.326.01-2.444-.01-3.552-.01-.568.12-1.017.789-1.057.55-.03.829.33.829 1.077 0 1.826.03 3.642-.02 5.468-.01.34-.23.808-.5.978-.439.27-.839-.03-1.148-.439-.96-1.287-1.928-2.554-2.897-3.831-.06.02-.11.03-.16.04M31.907 22.161v1.297h2.048c.7.01 1.12.33 1.08.858-.06.659-.51.789-1.08.769-.67-.02-1.328 0-2.038 0V26.5c.72 0 1.409-.01 2.098 0 .66.01 1.05.33 1.01.849-.05.598-.45.788-1 .788-.939-.01-1.868-.01-2.807 0-.65 0-.979-.29-.979-.958 0-1.896.01-3.792 0-5.677 0-.659.31-.978.959-.988.96-.01 1.918 0 2.877 0 .57 0 .95.26.94.838-.01.589-.42.818-.97.808h-2.138M16.353 26.501c.76 0 1.439.01 2.128 0 .55-.01.96.17.98.789.019.668-.41.838-.99.838-.909-.01-1.818.01-2.727 0-.74-.01-1.02-.26-1.02-.978a534.01 534.01 0 0 1 0-5.667c0-.55.23-.948.83-.948.6.01.81.409.81.968-.02 1.636-.01 3.282-.01 4.998M21.858 24.266v2.804c0 .569-.15 1.028-.81 1.038-.649.01-.849-.42-.849-.998v-5.617c0-.56.22-.968.81-.978.639-.01.849.419.849 1.008-.01.918 0 1.835 0 2.743"/>
    </g>
</svg>
